<svg height="256" viewBox="0 0 512 256" width="512" xmlns="http://www.w3.org/2000/svg"><g fill="none" fill-rule="evenodd" transform="translate(1)"><path d="m40 238c0 1.104569.8954305 2 2 2h427.920619c1.103421 0 1.998375-.89364 1.999997-1.99706l.073513-50.00882c.003244-2.206841 1.793152-3.99412 3.999995-3.99412h8.005876c2.209139 0 4 1.790861 4 4v64c0 2.209139-1.790861 4-4 4h-456c-2.209139 0-4-1.790861-4-4v-64c0-2.209139 1.790861-4 4-4h8c2.209139 0 4 1.790861 4 4zm432-220c0-1.1045695-.895431-2-2-2l-427.9831818.0006007c-1.104335 0-1.9996683.8950645-1.9999999 1.9993994l-.0168185 49.9999997c-.0006633 2.2086698-1.7913299 3.9987987-3.9999998 3.9987987l-8 .0012015c-2.209139 0-4-1.790861-4-4v-64c0-2.209139 1.790861-4 4-4h456c2.209139 0 4 1.790861 4 4v64c0 2.209139-1.790861 4-4 4h-8c-2.209139 0-4-1.790861-4-4zm-379 154v-88c0-2.209139 1.790861-4 4-4h56c2.209139 0 4 1.790861 4 4v6.3156297c0 2.209139-1.790861 4-4 4h-41.92868c-1.104569 0-2 .8954305-2 2v24.0910473c0 1.104569.895431 2 2 2h33.300455c2.209139 0 4 1.790861 4 4v6.045523c0 2.209139-1.790861 4-4 4h-33.300455c-1.104569 0-2 .895431-2 2v33.5478c0 2.209139-1.790861 4-4 4h-8.07132c-2.209139 0-4-1.790861-4-4zm150 0v-88c0-2.209139 1.790861-4 4-4h56c2.209139 0 4 1.790861 4 4v6.3156297c0 2.209139-1.790861 4-4 4h-41.92868c-1.104569 0-2 .8954305-2 2v24.0910473c0 1.104569.895431 2 2 2h33.300455c2.209139 0 4 1.790861 4 4v6.045523c0 2.209139-1.790861 4-4 4h-33.300455c-1.104569 0-2 .895431-2 2v33.5478c0 2.209139-1.790861 4-4 4h-8.07132c-2.209139 0-4-1.790861-4-4zm-52 0v-88c0-2.209139 1.790861-4 4-4h8c2.209139 0 4 1.790861 4 4v88c0 2.209139-1.790861 4-4 4h-8c-2.209139 0-4-1.790861-4-4zm142-43.800266c0-8.344472.708116-15.667967 2.12437-21.970706 1.416253-6.3027391 3.695502-11.5401478 6.837815-15.7123835s7.21398-7.3013655 12.215126-9.3874834c5.001145-2.0861178 11.086519-3.1291611 18.256302-3.1291611 7.169784 0 13.277286 1.0430433 18.32269 3.1291611 5.045403 2.0861179 9.139199 5.2152477 12.281512 9.3874834s5.421562 9.4096444 6.837815 15.7123835c1.416254 6.302739 2.12437 13.626234 2.12437 21.970706 0 8.344471-.708116 15.645774-2.12437 21.904128-1.416253 6.258353-3.695502 11.451377-6.837815 15.579227s-7.236109 7.212595-12.281512 9.254328c-5.045404 2.041732-11.152906 3.062583-18.32269 3.062583-7.169783 0-13.255157-1.020851-18.256302-3.062583-5.001146-2.041733-9.072813-5.126478-12.215126-9.254328s-5.421562-9.320874-6.837815-15.579227c-1.416254-6.258354-2.12437-13.559657-2.12437-21.904128zm63 .999896c0-6.388202-.398301-11.86689-1.194915-16.436229s-2.124285-8.317915-3.983051-11.245841c-1.858766-2.9279258-4.292829-5.0794755-7.30226-6.4547134s-6.682653-2.0628466-11.019774-2.0628466-8.010343.6876087-11.019774 2.0628466-5.443494 3.5267876-7.30226 6.4547134c-1.858766 2.927926-3.186437 6.676502-3.983051 11.245841s-1.194915 10.048027-1.194915 16.436229.398301 11.84471 1.194915 16.369686 2.124285 8.229191 3.983051 11.112754c1.858766 2.883564 4.292829 4.990751 7.30226 6.321627 3.009431 1.330875 6.682653 1.996303 11.019774 1.996303s8.010343-.665428 11.019774-1.996303c3.009431-1.330876 5.443494-3.438063 7.30226-6.321627 1.858766-2.883563 3.186437-6.587778 3.983051-11.112754s1.194915-9.981484 1.194915-16.369686z" fill="#fff"/><g fill="#8dc600"><path d="m6.51188985 79.7379192 56.29980735 45.4293408c1.7192305 1.387279 1.9883309 3.905602.6010524 5.624833-.2021841.250563-.4338804.475799-.6900593.670819l-56.29980733 42.859034c-1.75776178 1.338121-4.2674709.997936-5.60559221-.759826-.53018485-.696453-.81729076-1.547587-.81729076-2.422883v-88.2883755c0-2.209139 1.790861-4 4-4 .91405523 0 1.80053957.3130562 2.51188985.8870577z"/><path d="m453.505907 81.1200507 56.042825 45.0445603c1.721892 1.383974 1.995828 3.901776.611853 5.623667-.2049.25493-.440293.483766-.700908.681384l-56.042825 42.496023c-1.760293 1.334791-4.269353.989853-5.604143-.770439-.527299-.69539-.812709-1.544149-.812709-2.416852v-87.5405832c0-2.209139 1.790861-4 4-4 .91142 0 1.79551.3112564 2.505907.8822399z"/></g></g></svg>